<?xml version="1.0" encoding="UTF-8"?>
<svg version="1.1" xmlns="http://www.w3.org/2000/svg" width="512" height="512">
<path d="M0 0 C168.96 0 337.92 0 512 0 C512 168.96 512 337.92 512 512 C343.04 512 174.08 512 0 512 C0 343.04 0 174.08 0 0 Z " fill="#171717" transform="translate(0,0)"/>
<path d="M0 0 C0.7427417 0.00563965 1.4854834 0.0112793 2.25073242 0.01708984 C17.79719691 0.35795447 31.67490824 7.49067754 42.6875 18.3125 C45.28485462 21.50340001 47.54823882 24.80132133 49.6875 28.3125 C50.21085938 29.14394531 50.73421875 29.97539062 51.2734375 30.83203125 C52.58387442 33.13072584 53.49832551 35.24037424 54.3125 37.75 C54.55226563 38.47058594 54.79203125 39.19117188 55.0390625 39.93359375 C57.86557942 50.30316485 58.05561018 63.05241869 54.6875 73.3125 C54.45417969 74.08464844 54.22085938 74.85679687 53.98046875 75.65234375 C49.43222937 88.7986247 38.73654726 98.72007844 29.09375 108.3046875 C27.89462415 109.50584128 26.69594333 110.70743947 25.49768066 111.90945435 C23.00475081 114.40676864 20.50657562 116.89867483 18.00439453 119.38671875 C14.81707251 122.55689531 11.64348941 125.74043216 8.47370148 128.9281292 C6.0082848 131.40444161 3.53569949 133.87349715 1.06095886 136.34048843 C-0.1116727 137.51113687 -1.28213038 138.68396752 -2.45024109 139.85912704 C-17.11159414 154.5895699 -31.21958799 163.45151838 -52.5 163.625 C-65.88755827 163.63658539 -77.71201919 159.74894165 -87.484375 150.1875 C-92.58185702 144.45809872 -94.78922654 140.81929482 -94.625 133.0390625 C-94.03273826 127.87157879 -91.42634546 125.34484458 -87.75 121.9375 C-82.89076578 119.64040746 -78.5993246 119.51671865 -73.3125 120.3125 C-69.875 122.125 -69.875 122.125 -67.3125 124.3125 C-61.5250338 129.1353885 -55.25475149 130.9368205 -47.82421875 130.65234375 C-40.17034899 129.61675017 -35.3637546 125.84647028 -30.21484375 120.3203125 C-28.47831724 118.48751039 -26.70410361 116.90537733 -24.75 115.3125 C-22.33497773 113.29295788 -20.27651423 111.19195854 -18.25 108.78515625 C-13.70317168 103.52888094 -8.7977618 98.65176921 -3.875 93.75 C-2.97201172 92.84314453 -2.06902344 91.93628906 -1.13867188 91.00195312 C3.45191271 86.41801674 8.11312437 82.01293443 13.0324707 77.78540039 C19.82246002 71.7426204 23.18788111 65.47522857 24.0625 56.4375 C23.88343939 50.28975228 21.21978363 45.1760882 17.375 40.5 C10.41893182 34.83808404 6.28263464 33.86239975 -2.71484375 33.78125 C-11.2014305 35.03442676 -16.39767723 39.88590525 -22.1015625 45.95703125 C-23.55170543 47.45284041 -25.00223766 48.94827225 -26.453125 50.44335938 C-28.70863982 52.79236064 -30.95811464 55.14671566 -33.20019531 57.50854492 C-35.38139905 59.79814472 -37.58355966 62.06586566 -39.7890625 64.33203125 C-40.78771835 65.40370293 -40.78771835 65.40370293 -41.80654907 66.49702454 C-46.50681776 71.29686476 -46.50681776 71.29686476 -50.47021484 71.3737793 C-53.10139032 70.39132613 -55.70695933 69.36063146 -58.3125 68.3125 C-60.04616555 67.99316235 -61.79189789 67.73453211 -63.54296875 67.53125 C-64.51041016 67.41136719 -65.47785156 67.29148437 -66.47460938 67.16796875 C-68.50309609 66.92963138 -70.53174462 66.6926675 -72.56054688 66.45703125 C-73.52412109 66.33714844 -74.48769531 66.21726562 -75.48046875 66.09375 C-76.79954224 65.9400293 -76.79954224 65.9400293 -78.14526367 65.78320312 C-80.3125 65.3125 -80.3125 65.3125 -82.3125 63.3125 C-82.08461672 58.85882202 -80.30659833 56.80555655 -77.22680664 53.72509766 C-76.35822525 52.84713531 -75.48964386 51.96917297 -74.59474182 51.06460571 C-73.63780748 50.11815886 -72.68043411 49.17215573 -71.72265625 48.2265625 C-70.738473 47.24222409 -69.75495797 46.25721715 -68.77207947 45.27157593 C-66.70776918 43.20588151 -64.63666624 41.14732688 -62.56030273 39.09375 C-59.92277864 36.48440501 -57.3008746 33.86002543 -54.68381596 31.23017311 C-52.6517494 29.19108175 -50.61226725 27.15953658 -48.57052422 25.1301384 C-47.13695619 23.70318121 -45.70878675 22.27080687 -44.28077698 20.83828735 C-31.76209243 8.496635 -18.04975459 -0.14524461 0 0 Z " fill="#9A55EC" transform="translate(322.3125,135.6875)"/>
<path d="M0 0 C4.45236964 3.48322388 8.49774215 7.28064055 11.05078125 12.38671875 C11.59113719 17.31193025 11.59513594 21.25613593 9.42578125 25.76171875 C4.93933599 30.72042141 0.91036756 33.03726808 -5.7265625 33.48046875 C-12.03769114 33.21427 -17.0209088 29.15811393 -22.03125 25.69140625 C-25.77799651 23.14270292 -28.53774931 23.12896349 -33.07421875 23.01171875 C-34.35554688 22.96273437 -35.636875 22.91375 -36.95703125 22.86328125 C-47.13381044 23.57744523 -54.88017002 33.84406363 -61.65625 40.625 C-62.87045473 41.8320922 -64.08495265 43.03888955 -65.29972839 44.2454071 C-67.83383734 46.76612502 -70.36199551 49.29263761 -72.88647461 51.82299805 C-76.11199034 55.05442057 -79.35541953 58.26718054 -82.60399342 61.47539997 C-85.11348506 63.95897376 -87.61134442 66.45400003 -90.10608482 68.95238304 C-91.29697664 70.14158909 -92.49182481 71.32684757 -93.69077492 72.50792885 C-95.36835094 74.16322268 -97.02911042 75.83382307 -98.68676758 77.5090332 C-99.17770401 77.98670639 -99.66864044 78.46437958 -100.17445374 78.95652771 C-104.74189372 83.63640102 -107.33629538 89.5408001 -107.51171875 96.13671875 C-107.31302538 102.55451444 -104.49940602 108.13459788 -100.94921875 113.38671875 C-95.16839415 118.62727937 -89.15550089 119.86999569 -81.5078125 119.70703125 C-73.36873432 118.68809322 -67.15270106 114.01346401 -61.95703125 107.93359375 C-57.29366478 102.5821896 -52.40409041 97.4677399 -47.44921875 92.38671875 C-46.99240723 91.90251465 -46.5355957 91.41831055 -46.06494141 90.91943359 C-44.72075589 89.49615031 -43.3508567 88.09729131 -41.98046875 86.69921875 C-41.18189453 85.87035156 -40.38332031 85.04148437 -39.56054688 84.1875 C-36.16535964 81.8461667 -33.99287707 82.01368972 -29.94921875 82.38671875 C-27.4375 83.0078125 -27.4375 83.0078125 -25.26171875 83.82421875 C-18.78143475 86.20684537 -12.98300546 86.66989133 -6.06640625 87.0078125 C-2.94921875 87.38671875 -2.94921875 87.38671875 -0.94921875 89.38671875 C-1.17354971 93.86545993 -2.99546769 95.9417755 -6.07910156 99.05004883 C-6.95802063 99.94480423 -7.8369397 100.83955963 -8.74249268 101.76142883 C-9.71186228 102.72695264 -10.68182869 103.69187758 -11.65234375 104.65625 C-12.65161361 105.66076215 -13.65036404 106.66579127 -14.64862061 107.67131042 C-16.7470943 109.78019419 -18.85288701 111.88142104 -20.96386719 113.9777832 C-23.63832872 116.63521701 -26.29216353 119.31218357 -28.94035721 121.99576283 C-31.00265326 124.08029696 -33.07682893 126.1527015 -35.1543808 128.2220211 C-36.13555283 129.20238482 -37.11300917 130.18648476 -38.08628082 131.17469215 C-49.7899913 143.03006127 -63.62183618 152.79827403 -80.84106445 152.94311523 C-81.84613037 152.92450439 -82.85119629 152.90589355 -83.88671875 152.88671875 C-84.94141357 152.87390869 -85.9961084 152.86109863 -87.08276367 152.84790039 C-94.6142882 152.65152718 -101.18344846 151.91668586 -107.94921875 148.38671875 C-108.861875 147.91234375 -109.77453125 147.43796875 -110.71484375 146.94921875 C-122.55042122 140.07268212 -130.67013256 130.94481799 -135.94921875 118.38671875 C-136.27535156 117.70480469 -136.60148438 117.02289063 -136.9375 116.3203125 C-141.76812634 106.08671072 -141.62909677 90.07291819 -137.94921875 79.38671875 C-131.99458877 63.52599928 -120.22686053 52.50415837 -108.484375 40.71875 C-107.95348204 40.18502966 -107.42258907 39.65130932 -106.87560844 39.10141563 C-104.07216241 36.28312339 -101.26596771 33.46760458 -98.45727539 30.65454102 C-95.58515144 27.77691745 -92.72244608 24.89011025 -89.86179447 22.00108814 C-87.63189029 19.75243135 -85.39518051 17.51063578 -83.15664482 15.27057457 C-82.09896476 14.20990187 -81.04374397 13.14677005 -79.9912281 12.08097267 C-72.05426932 4.05094287 -63.98202398 -3.59896096 -53.19921875 -7.48828125 C-51.62914062 -8.07222656 -51.62914062 -8.07222656 -50.02734375 -8.66796875 C-32.70391137 -13.98810915 -14.58664373 -10.29943888 0 0 Z " fill="#9E54EC" transform="translate(278.94921875,223.61328125)"/>
</svg>